<svg width="50" height="36" viewBox="0 0 50 36" fill="none" xmlns="http://www.w3.org/2000/svg">
<path d="M5 0C2.25 0 0 2.25 0 5V31C0 33.75 2.25 36 5 36H45C47.75 36 50 33.75 50 31V5C50 2.25 47.75 0 45 0H5ZM5 2H45C46.668 2 48 3.33203 48 5V31C48 32.668 46.668 34 45 34H5C3.33203 34 2 32.668 2 31V5C2 3.33203 3.33203 2 5 2ZM29.6875 12.4062C26.5859 12.4062 25 13.9336 25 15.875C25 19.3867 29.0625 18.9141 29.0625 20.7188C29.0625 21.0234 28.8281 21.75 27.125 21.75C25.418 21.75 24.3125 21.0938 24.3125 21.0938L23.7812 23.4688C23.7812 23.4688 24.8867 24.0938 27 24.0938C29.1133 24.0938 32.0312 22.4766 32.0312 20.125C32.0312 17.2969 27.9688 17.0742 27.9688 15.8125C27.9688 15.168 28.4688 14.6875 29.9375 14.6875C30.8906 14.6875 31.9688 15.4062 31.9688 15.4062L32.4688 12.9688C32.4688 12.9688 31.0508 12.4062 29.6875 12.4062ZM16.4688 12.625L13.7812 20.5625C13.7812 20.5625 13.5977 19.8867 13.5312 19.4688C11.9961 16.0234 9.5 14.75 9.5 14.75L11.875 23.75H15.125L19.625 12.625H16.4688ZM20.7812 12.625L19.0312 23.75H22L23.7812 12.625H20.7812ZM36.8125 12.625L31.9688 23.75H34.9062L35.5 22.1562H39.1875L39.5 23.75H42.1875L39.9062 12.625H36.8125ZM6.25 12.6562C6.25 12.6562 12.0547 14.4531 13.4062 18.8125L12.4062 13.75C12.4062 13.75 11.9766 12.6562 10.8125 12.6562H6.25ZM37.9375 15.8438L38.75 20.0312H36.3125L37.9375 15.8438Z" fill="white"/>
</svg>
