<svg width="185" height="174" viewBox="0 0 185 174" fill="none" xmlns="http://www.w3.org/2000/svg">
<path d="M174.706 115.933C176.714 119.412 175.529 123.857 172.059 125.86L94.5602 170.604C91.0898 172.608 86.6483 171.412 84.6399 167.933L57.9711 121.741C54.5007 123.745 50.0593 122.549 48.0508 119.07L35.9286 98.0743C33.9202 94.5955 35.1053 90.1511 38.5757 88.1475L128.642 36.1478C132.112 34.1442 136.554 35.3401 138.562 38.8188L150.684 59.815C152.693 63.2938 151.508 67.7381 148.037 69.7418L174.706 115.933Z" stroke="#F3F3F3" stroke-width="4"/>
<path d="M45.2753 54.7784C61.292 60.482 68.6075 61.6228 76.7539 57.5993C78.5021 56.7359 78.9756 59.2236 75.124 61.4474C65.7357 66.8677 54.6112 65.3893 39.5301 62.6174C30.1943 60.9014 25.7115 63.0436 19.7974 70.1341C19.5753 69.0379 19.398 68.4267 19.4625 66.7744C20.1335 49.5909 38.7007 52.4372 45.2753 54.7784Z" stroke="#F3F3F3" stroke-width="4"/>
<path fill-rule="evenodd" clip-rule="evenodd" d="M82.1279 55.7887C80.9685 19.3128 52.5319 7.30657 42.2224 23.9178C30.749 42.4045 52.4056 57.1217 82.1279 55.7887ZM53.012 30.9315C59.9837 20.7694 73.58 38.7596 80.8072 54.6131C79.9823 54.2551 79.164 53.9011 78.3539 53.5507C60.6569 45.8948 46.8456 39.9199 53.012 30.9315Z" stroke="#F3F3F3" stroke-width="4"/>
<path fill-rule="evenodd" clip-rule="evenodd" d="M85.0166 54.1209C76.9865 27.4259 90.9191 6.78482 104.826 13.9368C120.804 22.154 107.576 45.9411 85.0166 54.1209ZM85.9015 52.318C96.7342 41.308 107.112 24.5679 100.262 22.7091C94.9333 21.2633 89.156 32.0897 85.9015 52.318Z" stroke="#F3F3F3" stroke-width="4"/>
</svg>
