<svg width="35" height="46" viewBox="0 0 35 46" fill="none" xmlns="http://www.w3.org/2000/svg">
<mask id="mask0" mask-type="alpha" maskUnits="userSpaceOnUse" x="0" y="0" width="35" height="46">
<path d="M32.8571 43.5714C32.8571 44.7549 31.8978 45.7143 30.7143 45.7143H4.28571C3.10225 45.7143 2.14286 44.7549 2.14286 43.5714V27.8571C0.95939 27.8571 0 26.8978 0 25.7143V18.5714C0 17.388 0.95939 16.4286 2.14286 16.4286H32.8571C34.0406 16.4286 35 17.388 35 18.5714V25.7143C35 26.8978 34.0406 27.8571 32.8571 27.8571V43.5714Z" fill="#FE2047"/>
<path d="M8.78386 8.90142C12.0382 12.7161 13.7407 14.0848 16.4184 14.2583C16.9931 14.2955 16.7468 15 15.4333 15C12.2317 15 9.60478 12.984 6.15691 10.0552C4.02251 8.24211 2.55965 8.12834 0 9.06625C0.105083 8.75384 0.149976 8.57176 0.410461 8.1597C3.1195 3.87421 7.44803 7.33557 8.78386 8.90142Z" fill="#FE2047"/>
<path fill-rule="evenodd" clip-rule="evenodd" d="M18.0603 14.5879C23.15 5.11041 17.6498 -2.14196 12.5601 0.577686C6.89574 3.60439 10.2615 10.5497 18.0603 14.5879ZM14.284 3.95662C17.5677 2.39077 18.3886 8.98383 17.8961 14.0935C17.738 13.8806 17.5809 13.6697 17.4255 13.461C14.0297 8.90066 11.3796 5.34163 14.284 3.95662Z" fill="#FE2047"/>
<path fill-rule="evenodd" clip-rule="evenodd" d="M19.0454 14.5879C20.9335 6.59386 27.545 3.37974 30.0457 7.25317C32.9189 11.7035 26.0232 15.8241 19.0454 14.5879ZM19.5379 14.2583C23.9344 13.0449 29.0606 10.3025 27.583 8.81902C26.4337 7.66523 23.3573 9.5765 19.5379 14.2583Z" fill="#FE2047"/>
</mask>
<g mask="url(#mask0)">
<path d="M32.8571 43.5714C32.8571 44.7549 31.8978 45.7143 30.7143 45.7143H4.28571C3.10225 45.7143 2.14286 44.7549 2.14286 43.5714V27.8571C0.95939 27.8571 0 26.8978 0 25.7143V18.5714C0 17.388 0.95939 16.4286 2.14286 16.4286H32.8571C34.0406 16.4286 35 17.388 35 18.5714V25.7143C35 26.8978 34.0406 27.8571 32.8571 27.8571V43.5714Z" fill="url(#paint0_radial)"/>
<path d="M8.78386 8.90142C12.0382 12.7161 13.7407 14.0848 16.4184 14.2583C16.9931 14.2955 16.7468 15 15.4333 15C12.2317 15 9.60478 12.984 6.15691 10.0552C4.02251 8.24211 2.55965 8.12834 0 9.06625C0.105083 8.75384 0.149976 8.57176 0.410461 8.1597C3.1195 3.87421 7.44803 7.33557 8.78386 8.90142Z" fill="url(#paint1_radial)"/>
<path fill-rule="evenodd" clip-rule="evenodd" d="M18.0603 14.5879C23.15 5.11041 17.6498 -2.14196 12.5601 0.577686C6.89574 3.60439 10.2615 10.5497 18.0603 14.5879ZM14.284 3.95662C17.5677 2.39077 18.3886 8.98383 17.8961 14.0935C17.738 13.8806 17.5809 13.6697 17.4255 13.461C14.0297 8.90066 11.3796 5.34163 14.284 3.95662Z" fill="url(#paint2_radial)"/>
<path fill-rule="evenodd" clip-rule="evenodd" d="M19.0454 14.5879C20.9335 6.59386 27.545 3.37974 30.0457 7.25317C32.9189 11.7035 26.0232 15.8241 19.0454 14.5879ZM19.5379 14.2583C23.9344 13.0449 29.0606 10.3025 27.583 8.81902C26.4337 7.66523 23.3573 9.5765 19.5379 14.2583Z" fill="url(#paint3_radial)"/>
<circle cx="5.7143" cy="45.7143" r="23.7857" fill="#C4C4C4"/>
<circle cx="5.7143" cy="45.7143" r="23.7857" fill="url(#paint4_radial)"/>
<circle cx="5.7143" cy="45.7143" r="23.7857" stroke="url(#paint5_linear)"/>
<circle cx="5.71429" cy="46.4286" r="15.2143" fill="#C4C4C4"/>
<circle cx="5.71429" cy="46.4286" r="15.2143" fill="#FF3E60"/>
<circle cx="5.71429" cy="46.4286" r="15.2143" stroke="url(#paint6_linear)"/>
</g>
<defs>
<radialGradient id="paint0_radial" cx="0" cy="0" r="1" gradientUnits="userSpaceOnUse" gradientTransform="translate(1.5 45) rotate(-53.0112) scale(48.2001 36.9032)">
<stop stop-color="#AE112C"/>
<stop offset="1" stop-color="#EB1439"/>
</radialGradient>
<radialGradient id="paint1_radial" cx="0" cy="0" r="1" gradientUnits="userSpaceOnUse" gradientTransform="translate(1.5 45) rotate(-53.0112) scale(48.2001 36.9032)">
<stop stop-color="#AE112C"/>
<stop offset="1" stop-color="#EB1439"/>
</radialGradient>
<radialGradient id="paint2_radial" cx="0" cy="0" r="1" gradientUnits="userSpaceOnUse" gradientTransform="translate(1.5 45) rotate(-53.0112) scale(48.2001 36.9032)">
<stop stop-color="#AE112C"/>
<stop offset="1" stop-color="#EB1439"/>
</radialGradient>
<radialGradient id="paint3_radial" cx="0" cy="0" r="1" gradientUnits="userSpaceOnUse" gradientTransform="translate(1.5 45) rotate(-53.0112) scale(48.2001 36.9032)">
<stop stop-color="#AE112C"/>
<stop offset="1" stop-color="#EB1439"/>
</radialGradient>
<radialGradient id="paint4_radial" cx="0" cy="0" r="1" gradientUnits="userSpaceOnUse" gradientTransform="translate(5.7143 45.7143) rotate(90) scale(24.2857)">
<stop stop-color="#BA1E3A"/>
<stop offset="1" stop-color="#FE2047"/>
</radialGradient>
<linearGradient id="paint5_linear" x1="-0.357126" y1="21.4286" x2="25.5844" y2="44.6104" gradientUnits="userSpaceOnUse">
<stop stop-color="white" stop-opacity="0.14"/>
<stop offset="1" stop-color="white" stop-opacity="0"/>
</linearGradient>
<linearGradient id="paint6_linear" x1="1.78571" y1="30.7143" x2="18.5714" y2="45.7143" gradientUnits="userSpaceOnUse">
<stop stop-color="white" stop-opacity="0.14"/>
<stop offset="1" stop-color="white" stop-opacity="0"/>
</linearGradient>
</defs>
</svg>
