<svg width="16" height="16" viewBox="0 0 16 16" fill="none" xmlns="http://www.w3.org/2000/svg">
<path d="M3.84001 0C3.49001 0 3.20001 0.29 3.20001 0.64V1.28H1.28001C1.15001 1.28 1.00751 1.3 0.871265 1.395C0.735015 1.49 0.640015 1.67875 0.640015 1.85375V14.7337C0.640015 14.8937 0.695015 15.0575 0.810015 15.1762C0.923765 15.2962 1.09126 15.36 1.25376 15.36H14.7463C14.9088 15.36 15.0763 15.2962 15.19 15.1762C15.305 15.0575 15.36 14.8937 15.36 14.7337V1.85375C15.36 1.67875 15.265 1.49 15.1288 1.395C14.9925 1.3 14.85 1.28 14.72 1.28H12.8V0.64C12.8 0.29 12.51 0 12.16 0H11.52C11.17 0 10.88 0.29 10.88 0.64V1.28H5.12001V0.64C5.12001 0.29 4.83001 0 4.48001 0H3.84001ZM3.84001 0.64H4.48001V2.56H3.84001V0.64ZM11.52 0.64H12.16V2.56H11.52V0.64ZM1.28001 1.92H3.20001V2.56C3.20001 2.91 3.49001 3.2 3.84001 3.2H4.48001C4.83001 3.2 5.12001 2.91 5.12001 2.56V1.92H10.88V2.56C10.88 2.91 11.17 3.2 11.52 3.2H12.16C12.51 3.2 12.8 2.91 12.8 2.56V1.92H14.72V4.16H1.28001V1.92ZM1.28001 4.8H14.72V14.72H1.28001V4.8Z" fill="#373F4F"/>
</svg>
