<svg width="18" height="18" viewBox="0 0 18 18" fill="none" xmlns="http://www.w3.org/2000/svg">
<path d="M3.58571 0.93335C3.03173 0.93335 2.52099 1.24947 2.27373 1.74546L0.933105 4.42671V4.60002V6.80002V15.6C0.933105 16.4104 1.58944 17.0667 2.39977 17.0667H15.5998C16.4101 17.0667 17.0664 16.4104 17.0664 15.6V6.80002V4.60002V4.42671L15.7244 1.74403C15.4768 1.24911 14.9671 0.93335 14.4138 0.93335H3.58571ZM3.58714 2.40002H14.4124L15.5124 4.60002H2.48714L3.58714 2.40002ZM8.99977 6.80002C9.40531 6.80002 9.73311 7.12855 9.73311 7.53335V12.363L10.6813 11.4149C10.968 11.1281 11.4315 11.1281 11.7183 11.4149C12.005 11.7016 12.005 12.1651 11.7183 12.4518L9.51826 14.6518C9.37526 14.7948 9.18751 14.8667 8.99977 14.8667C8.81204 14.8667 8.62428 14.7948 8.48128 14.6518L6.28128 12.4518C5.99455 12.1651 5.99455 11.7016 6.28128 11.4149C6.56802 11.1281 7.03153 11.1281 7.31826 11.4149L8.26644 12.363V7.53335C8.26644 7.12855 8.59424 6.80002 8.99977 6.80002Z" fill="#FE2047"/>
</svg>
