<svg width="18" height="18" viewBox="0 0 18 18" fill="none" xmlns="http://www.w3.org/2000/svg">
<path d="M14.1456 0.825439L12.0911 2.87997L14.1456 4.9345L14.6547 4.42544L13.4692 3.23997H14.7602C15.7518 3.23997 16.5602 4.04833 16.5602 5.03997V6.83997H17.2802V5.03997C17.2802 3.65561 16.1445 2.51997 14.7602 2.51997H13.4692L14.6547 1.3345L14.1456 0.825439ZM2.16016 2.51856C1.36834 2.51856 0.71875 3.16815 0.71875 3.95997V8.99997C0.71875 9.79179 1.36834 10.4414 2.16016 10.4414H6.83875V14.04C6.83875 14.8318 7.48834 15.4814 8.28016 15.4814H15.8402C16.632 15.4814 17.2816 14.8318 17.2816 14.04V8.99997C17.2816 8.20815 16.632 7.55856 15.8402 7.55856H11.1616V3.95997C11.1616 3.16815 10.512 2.51856 9.72016 2.51856H2.16016ZM2.16016 3.24138H9.72016C10.1214 3.24138 10.4388 3.55875 10.4388 3.95997V4.67997H1.44156V3.95997C1.44156 3.55875 1.75893 3.24138 2.16016 3.24138ZM1.44156 6.11997H10.4388V7.55856H8.28016C7.58732 7.55856 7.00344 8.05619 6.86828 8.71099C6.84897 8.80453 6.83875 8.90099 6.83875 8.99997V9.71856H2.16016C1.75893 9.71856 1.44156 9.40119 1.44156 8.99997V6.11997ZM8.28016 8.28138H15.8402C16.2414 8.28138 16.5588 8.59875 16.5588 8.99997V9.71997H7.56156V8.99997C7.56156 8.94982 7.56687 8.9008 7.57633 8.85372C7.64256 8.52419 7.92909 8.28138 8.28016 8.28138ZM0.720156 11.16V12.96C0.720156 14.3443 1.85579 15.48 3.24016 15.48H4.53109L3.34563 16.6654L3.85469 17.1745L5.90922 15.12L3.85469 13.0654L3.34563 13.5745L4.53109 14.76H3.24016C2.24852 14.76 1.44016 13.9516 1.44016 12.96V11.16H0.720156ZM7.56156 11.16H16.5588V14.04C16.5588 14.4412 16.2414 14.7586 15.8402 14.7586H8.28016C7.87893 14.7586 7.56156 14.4412 7.56156 14.04V11.16Z" fill="#373F4F"/>
</svg>
