<svg width="18" height="18" viewBox="0 0 18 18" fill="none" xmlns="http://www.w3.org/2000/svg">
<path d="M4.32021 0C3.92646 0 3.60021 0.32625 3.60021 0.72V1.44H1.44021C1.25178 1.44 1.06053 1.50891 0.925528 1.64531C0.789121 1.78031 0.720215 1.97156 0.720215 2.16V16.56C0.720215 16.7484 0.789121 16.9397 0.925528 17.0761C1.06053 17.2111 1.25178 17.28 1.44021 17.28H16.5602C16.7487 17.28 16.9399 17.2111 17.0763 17.0761C17.2113 16.9397 17.2802 16.7484 17.2802 16.56V2.16C17.2802 1.97156 17.2113 1.78031 17.0763 1.64531C16.9399 1.50891 16.7487 1.44 16.5602 1.44H14.4002V0.72C14.4002 0.32625 14.074 0 13.6802 0H12.9602C12.5665 0 12.2402 0.32625 12.2402 0.72V1.44H5.76021V0.72C5.76021 0.32625 5.43396 0 5.04021 0H4.32021ZM4.32021 0.72H5.04021V2.88H4.32021V0.72ZM12.9602 0.72H13.6802V2.88H12.9602V0.72ZM1.44021 2.16H3.60021V2.88C3.60021 3.27375 3.92646 3.6 4.32021 3.6H5.04021C5.43396 3.6 5.76021 3.27375 5.76021 2.88V2.16H12.2402V2.88C12.2402 3.27375 12.5665 3.6 12.9602 3.6H13.6802C14.074 3.6 14.4002 3.27375 14.4002 2.88V2.16H16.5602V4.68H1.44021V2.16ZM1.44021 5.4H16.5602V16.56H1.44021V5.4ZM3.60021 6.84V15.12H14.4002V6.84H3.60021ZM4.32021 7.56H6.12021V9.36H4.32021V7.56ZM6.84021 7.56H8.64021V9.36H6.84021V7.56ZM9.36021 7.56H11.1602V9.36H9.36021V7.56ZM11.8802 7.56H13.6802V9.36H11.8802V7.56ZM4.32021 10.08H6.12021V11.88H4.32021V10.08ZM6.84021 10.08H8.64021V11.88H6.84021V10.08ZM9.36021 10.08H11.1602V11.88H9.36021V10.08ZM11.8802 10.08H13.6802V11.88H11.8802V10.08ZM4.32021 12.6H6.12021V14.4H4.32021V12.6ZM6.84021 12.6H8.64021V14.4H6.84021V12.6ZM9.36021 12.6H11.1602V14.4H9.36021V12.6ZM11.8802 12.6H13.6802V14.4H11.8802V12.6Z" fill="#373F4F"/>
</svg>
