<svg width="22" height="22" viewBox="0 0 22 22" fill="none" xmlns="http://www.w3.org/2000/svg">
<path d="M11 0.880005C5.412 0.880005 0.880001 5.41201 0.880001 11C0.880001 16.588 5.412 21.12 11 21.12C16.588 21.12 21.12 16.588 21.12 11C21.12 5.41201 16.588 0.880005 11 0.880005ZM10.296 6.46801C10.296 6.38001 10.34 6.29201 10.472 6.29201H11.484C11.572 6.29201 11.66 6.33601 11.66 6.46801V12.408C11.66 12.496 11.616 12.584 11.484 12.584H10.472C10.384 12.584 10.296 12.54 10.296 12.408V6.46801ZM11.704 15.532C11.704 15.62 11.66 15.708 11.528 15.708H10.472C10.384 15.708 10.296 15.664 10.296 15.532V14.388C10.296 14.3 10.34 14.212 10.472 14.212H11.528C11.616 14.212 11.704 14.256 11.704 14.388V15.532Z" fill="#FE2047"/>
</svg>
