<svg width="18" height="12" viewBox="0 0 18 12" fill="none" xmlns="http://www.w3.org/2000/svg">
<path d="M2.52021 0.23999C1.53021 0.23999 0.720215 1.04999 0.720215 2.03999V9.95999C0.720215 10.95 1.53021 11.76 2.52021 11.76H15.4802C16.4702 11.76 17.2802 10.95 17.2802 9.95999V2.03999C17.2802 1.04999 16.4702 0.23999 15.4802 0.23999H2.52021ZM2.52021 0.95999H15.4802C16.0807 0.95999 16.5602 1.43952 16.5602 2.03999V2.75999H1.44021V2.03999C1.44021 1.43952 1.91975 0.95999 2.52021 0.95999ZM1.44021 4.55999H16.5602V9.95999C16.5602 10.5605 16.0807 11.04 15.4802 11.04H2.52021C1.91975 11.04 1.44021 10.5605 1.44021 9.95999V4.55999ZM3.24021 5.63999V6.35999H9.00021V5.63999H3.24021Z" fill="#373F4F"/>
</svg>
