<svg width="22" height="22" viewBox="0 0 22 22" fill="none" xmlns="http://www.w3.org/2000/svg">
<path d="M15.9287 0H6.07107C2.72349 0 0 2.72362 0 6.0712V15.9288C0 19.2765 2.72349 22 6.07107 22H15.9287C19.2765 22 22 19.2764 22 15.9288V6.0712C22.0001 2.72362 19.2765 0 15.9287 0ZM20.0482 15.9288C20.0482 18.2002 18.2002 20.0481 15.9288 20.0481H6.07107C3.79979 20.0482 1.95195 18.2002 1.95195 15.9288V6.0712C1.95195 3.79992 3.79979 1.95195 6.07107 1.95195H15.9287C18.2001 1.95195 20.0481 3.79992 20.0481 6.0712L20.0482 15.9288Z" fill="#FE2047"/>
<path d="M11 5.33148C7.87414 5.33148 5.33115 7.87448 5.33115 11.0003C5.33115 14.126 7.87414 16.6689 11 16.6689C14.1258 16.6689 16.6688 14.126 16.6688 11.0003C16.6688 7.87448 14.1258 5.33148 11 5.33148ZM11 14.7168C8.95058 14.7168 7.28309 13.0496 7.28309 11.0002C7.28309 8.95065 8.95045 7.2833 11 7.2833C13.0495 7.2833 14.7169 8.95065 14.7169 11.0002C14.7169 13.0496 13.0494 14.7168 11 14.7168Z" fill="#FE2047"/>
<path d="M16.9066 3.67651C16.5305 3.67651 16.161 3.82877 15.8954 4.09553C15.6286 4.361 15.4751 4.73056 15.4751 5.10794C15.4751 5.48415 15.6287 5.85358 15.8954 6.12035C16.1609 6.38582 16.5305 6.53937 16.9066 6.53937C17.2839 6.53937 17.6522 6.38582 17.919 6.12035C18.1857 5.85358 18.338 5.48402 18.338 5.10794C18.338 4.73056 18.1857 4.361 17.919 4.09553C17.6535 3.82877 17.2839 3.67651 16.9066 3.67651Z" fill="#FE2047"/>
</svg>
