<svg width="38" height="47" viewBox="0 0 38 47" fill="none" xmlns="http://www.w3.org/2000/svg">
<path d="M19 0C12.3645 0 7 5.36448 7 12V17H3C1.35455 17 0 18.3545 0 20V44C0 45.6455 1.35455 47 3 47H35C36.6455 47 38 45.6455 38 44V20C38 18.3545 36.6455 17 35 17H31V12C31 5.36448 25.6355 0 19 0ZM19 2C24.5645 2 29 6.43552 29 12V17H9V12C9 6.43552 13.4355 2 19 2ZM3 19H7.83203C7.94002 19.0178 8.05021 19.0178 8.1582 19H29.832C29.94 19.0178 30.0502 19.0178 30.1582 19H35C35.5545 19 36 19.4455 36 20V44C36 44.5545 35.5545 45 35 45H3C2.44545 45 2 44.5545 2 44V20C2 19.4455 2.44545 19 3 19ZM19 27C17.3 27 16 28.3 16 30C16 30.9 16.4 31.6992 17 32.1992V35C17 36.1 17.9 37 19 37C20.1 37 21 36.1 21 35V32.1992C21.6 31.6992 22 30.9 22 30C22 28.3 20.7 27 19 27Z" fill="#373F4F"/>
</svg>
