<svg width="70" height="39" viewBox="0 0 70 39" fill="none" xmlns="http://www.w3.org/2000/svg">
<rect opacity="0.5" x="0.5" y="0.5" width="69" height="38" rx="4.5" stroke="white"/>
<path fill-rule="evenodd" clip-rule="evenodd" d="M14.5353 12L14.536 12.0044H12V12.4619V12.4634C13.9792 12.5304 14.5701 13.5221 14.7889 14.6766L15.9558 27H19.7958L28 12H24.16L19.2291 21.0156L18.3753 12H14.5353Z" fill="white"/>
<path fill-rule="evenodd" clip-rule="evenodd" d="M30.4068 12H34L29.5932 27H26L30.4068 12Z" fill="white"/>
<path fill-rule="evenodd" clip-rule="evenodd" d="M51.3781 13L44 27H48.139L49.2156 24.8624H54.0202L54.1851 27H58L56.9205 13C55.073 13 53.2256 13 51.3781 13ZM53.3827 16.5927L53.8393 22.5118H50.4003L53.3827 16.5927Z" fill="white"/>
<path d="M34.9319 15.8124C35.5149 13.5468 37.4285 12 40.6859 12C43.7372 12 46 13.8527 46 13.8527L43.6911 16.2043C43.6911 16.2043 41.9844 14.9216 40.9791 14.9216C39.6498 14.9216 39.0495 15.3935 38.9267 16.1686C38.6818 17.7143 44.3468 18.6602 44.1675 22.2613C44.0478 24.6661 41.4876 27 38.5602 27C34.1706 27 32 25.2898 32 25.2898L33.9791 22.5463C33.9791 22.5463 35.9628 24.0911 37.8272 24.0071C39.0851 23.9504 40.0546 23.4818 39.9895 22.6532C39.8421 20.7751 33.8768 19.913 34.9319 15.8124Z" fill="white"/>
</svg>
