<svg width="70" height="39" viewBox="0 0 70 39" fill="none" xmlns="http://www.w3.org/2000/svg">
<rect opacity="0.5" x="0.5" y="0.5" width="69" height="38" rx="4.5" stroke="white"/>
<path d="M25.6412 31.9467V30.3538C25.6412 29.7431 25.2687 29.3449 24.63 29.3449C24.3107 29.3449 23.9648 29.4511 23.7253 29.7962C23.539 29.5042 23.2729 29.3449 22.8738 29.3449C22.6077 29.3449 22.3416 29.4246 22.1287 29.7166V29.398H21.5699V31.9467H22.1287V30.5396C22.1287 30.0883 22.3682 29.8759 22.7408 29.8759C23.1133 29.8759 23.2996 30.1148 23.2996 30.5396V31.9467H23.8584V30.5396C23.8584 30.0883 24.1245 29.8759 24.4704 29.8759C24.8429 29.8759 25.0292 30.1148 25.0292 30.5396V31.9467H25.6412ZM33.9167 29.398H33.012V28.6281H32.4532V29.398H31.9476V29.9024H32.4532V31.0706C32.4532 31.6546 32.6927 31.9998 33.3313 31.9998C33.5708 31.9998 33.8369 31.9201 34.0232 31.8139L33.8635 31.3361C33.7038 31.4422 33.5176 31.4688 33.3845 31.4688C33.1184 31.4688 33.012 31.3095 33.012 31.044V29.9024H33.9167V29.398ZM38.6532 29.3449C38.3339 29.3449 38.121 29.5042 37.988 29.7166V29.398H37.4292V31.9467H37.988V30.5131C37.988 30.0883 38.1742 29.8493 38.5202 29.8493C38.6266 29.8493 38.7596 29.8759 38.8661 29.9024L39.0257 29.3715C38.9193 29.3449 38.7596 29.3449 38.6532 29.3449ZM31.4953 29.6104C31.2292 29.4246 30.8566 29.3449 30.4575 29.3449C29.8189 29.3449 29.3931 29.6635 29.3931 30.1679C29.3931 30.5927 29.7124 30.8316 30.2712 30.9113L30.5373 30.9378C30.83 30.9909 30.9897 31.0706 30.9897 31.2033C30.9897 31.3892 30.7768 31.5219 30.4043 31.5219C30.0317 31.5219 29.739 31.3892 29.5528 31.2564L29.2867 31.6812C29.5794 31.8936 29.9785 31.9998 30.3777 31.9998C31.1227 31.9998 31.5485 31.6546 31.5485 31.1768C31.5485 30.7254 31.2026 30.4865 30.6704 30.4069L30.4043 30.3803C30.1648 30.3538 29.9785 30.3007 29.9785 30.1414C29.9785 29.9555 30.1648 29.8493 30.4575 29.8493C30.7768 29.8493 31.0961 29.9821 31.2558 30.0617L31.4953 29.6104ZM46.3433 29.3449C46.024 29.3449 45.8112 29.5042 45.6781 29.7166V29.398H45.1193V31.9467H45.6781V30.5131C45.6781 30.0883 45.8644 29.8493 46.2103 29.8493C46.3167 29.8493 46.4498 29.8759 46.5562 29.9024L46.7159 29.3715C46.6094 29.3449 46.4498 29.3449 46.3433 29.3449ZM39.212 30.6723C39.212 31.4422 39.7442 31.9998 40.5691 31.9998C40.9416 31.9998 41.2077 31.9201 41.4738 31.7077L41.2077 31.2564C40.9948 31.4157 40.782 31.4953 40.5425 31.4953C40.0901 31.4953 39.7708 31.1768 39.7708 30.6723C39.7708 30.1945 40.0901 29.8759 40.5425 29.8493C40.782 29.8493 40.9948 29.929 41.2077 30.0883L41.4738 29.6369C41.2077 29.4246 40.9416 29.3449 40.5691 29.3449C39.7442 29.3449 39.212 29.9024 39.212 30.6723ZM44.3742 30.6723V29.398H43.8154V29.7166C43.6292 29.4777 43.3631 29.3449 43.0172 29.3449C42.2987 29.3449 41.7399 29.9024 41.7399 30.6723C41.7399 31.4422 42.2987 31.9998 43.0172 31.9998C43.3897 31.9998 43.6558 31.867 43.8154 31.6281V31.9467H44.3742V30.6723ZM42.3253 30.6723C42.3253 30.221 42.618 29.8493 43.097 29.8493C43.5493 29.8493 43.8687 30.1945 43.8687 30.6723C43.8687 31.1237 43.5493 31.4953 43.097 31.4953C42.618 31.4688 42.3253 31.1237 42.3253 30.6723ZM35.6463 29.3449C34.9013 29.3449 34.3691 29.8759 34.3691 30.6723C34.3691 31.4688 34.9013 31.9998 35.673 31.9998C36.0455 31.9998 36.418 31.8936 36.7107 31.6546L36.4446 31.2564C36.2317 31.4157 35.9657 31.5219 35.6996 31.5219C35.3536 31.5219 35.0077 31.3626 34.9279 30.9113H36.8172C36.8172 30.8316 36.8172 30.7785 36.8172 30.6989C36.8438 29.8759 36.3648 29.3449 35.6463 29.3449ZM35.6463 29.8228C35.9923 29.8228 36.2317 30.0352 36.285 30.4334H34.9545C35.0077 30.0883 35.2472 29.8228 35.6463 29.8228ZM49.5099 30.6723V28.3892H48.9511V29.7166C48.7648 29.4777 48.4987 29.3449 48.1528 29.3449C47.4343 29.3449 46.8755 29.9024 46.8755 30.6723C46.8755 31.4422 47.4343 31.9998 48.1528 31.9998C48.5253 31.9998 48.7914 31.867 48.9511 31.6281V31.9467H49.5099V30.6723ZM47.4609 30.6723C47.4609 30.221 47.7536 29.8493 48.2326 29.8493C48.685 29.8493 49.0043 30.1945 49.0043 30.6723C49.0043 31.1237 48.685 31.4953 48.2326 31.4953C47.7536 31.4688 47.4609 31.1237 47.4609 30.6723ZM28.7811 30.6723V29.398H28.2223V29.7166C28.036 29.4777 27.7699 29.3449 27.424 29.3449C26.7056 29.3449 26.1468 29.9024 26.1468 30.6723C26.1468 31.4422 26.7056 31.9998 27.424 31.9998C27.7966 31.9998 28.0627 31.867 28.2223 31.6281V31.9467H28.7811V30.6723ZM26.7056 30.6723C26.7056 30.221 26.9983 29.8493 27.4772 29.8493C27.9296 29.8493 28.2489 30.1945 28.2489 30.6723C28.2489 31.1237 27.9296 31.4953 27.4772 31.4953C26.9983 31.4688 26.7056 31.1237 26.7056 30.6723Z" fill="white"/>
<path d="M39.691 10.0444H31.309V25.071H39.691V10.0444Z" fill="#D9D9D9"/>
<path d="M31.8412 17.5575C31.8412 14.5044 33.2781 11.7965 35.4867 10.0443C33.8635 8.76991 31.8146 8 29.5794 8C24.2841 8 20 12.2743 20 17.5575C20 22.8407 24.2841 27.115 29.5794 27.115C31.8146 27.115 33.8635 26.3451 35.4867 25.0708C33.2781 23.3451 31.8412 20.6106 31.8412 17.5575Z" fill="white"/>
<path d="M51 17.5575C51 22.8407 46.7159 27.115 41.4206 27.115C39.1854 27.115 37.1365 26.3451 35.5133 25.0708C37.7485 23.3186 39.1588 20.6106 39.1588 17.5575C39.1588 14.5044 37.7219 11.7965 35.5133 10.0443C37.1365 8.76991 39.1854 8 41.4206 8C46.7159 8 51 12.3009 51 17.5575Z" fill="#B7B7B7"/>
</svg>
