<svg width="70" height="39" viewBox="0 0 70 39" fill="none" xmlns="http://www.w3.org/2000/svg">
<rect opacity="0.5" x="0.5" y="0.5" width="69" height="38" rx="4.5" stroke="white"/>
<path d="M35.445 8.00142C37.2398 8.00142 38.9472 8.41861 40.479 9.16493C40.7192 9.27459 40.9609 9.40664 41.2004 9.53881L40.1506 10.4843L38.5754 8.83584L35.8622 11.2523L34.2643 9.51716L29.2743 14.021L32.4695 17.5577L31.222 18.6548L34.3737 22.1915L33.1263 23.29L37.6357 28.3207L40.3041 25.8595L42.6249 28.4969C42.165 28.8484 41.6618 29.2006 41.1152 29.5073C39.4518 30.4529 37.5255 31 35.4677 31C29.1428 31 24.0001 25.8393 24.0001 19.4906C23.9786 13.1859 29.1215 8 35.4457 8L35.445 8.00142ZM33.3438 18.7869L36.0804 16.3257L38.5313 19.0727L35.7947 21.5325L33.3438 18.7861V18.7869ZM35.2914 23.5325L38.0068 21.0496L40.479 23.796L37.7423 26.2572L35.2914 23.5325ZM31.3976 14.1076L34.1321 11.6478L36.5844 14.3934L33.8478 16.8547L31.3976 14.1076ZM36.4088 12.7904L38.4432 10.9448L40.2821 12.9875L38.2456 14.8547L36.4074 12.7904H36.4088ZM40.0411 21.2473L42.0755 19.4025L43.9144 21.4668L41.8786 23.3131L40.0411 21.2473ZM41.8352 25.3997L43.871 23.5541L45.7085 25.5968L43.6734 27.464L41.8352 25.3997ZM42.6669 15.9085L44.0245 14.6793L45.2493 16.0413L43.893 17.2711L42.6669 15.9085ZM40.9161 11.8448L42.2738 10.5933L43.5 11.9776L42.1423 13.2082L40.9168 11.8456L40.9161 11.8448ZM44.397 19.9742L45.7532 18.7436L47 20.1056L45.621 21.3354L44.397 19.9742ZM38.2911 16.9196L40.3261 15.0748L42.1643 17.1174L40.13 18.963L38.2911 16.9196Z" fill="white"/>
</svg>
