<svg width="30" height="30" viewBox="0 0 30 30" fill="none" xmlns="http://www.w3.org/2000/svg">
<path d="M15 0.599976C7.69615 0.599976 1.65596 6.064 0.735913 13.1273C0.709917 13.2861 0.716127 13.4486 0.754174 13.6049C0.79222 13.7613 0.861326 13.9084 0.957381 14.0375C1.05344 14.1666 1.17448 14.2751 1.31331 14.3565C1.45214 14.4379 1.60592 14.4905 1.7655 14.5113C1.92508 14.532 2.08721 14.5205 2.24224 14.4773C2.39727 14.4341 2.54203 14.3602 2.66791 14.26C2.7938 14.1597 2.89823 14.0352 2.97501 13.8937C3.05178 13.7523 3.09933 13.5969 3.11482 13.4367C3.88197 7.54721 8.89021 2.99998 15 2.99998C18.3202 2.99998 21.3007 4.35423 23.4703 6.52966L21 8.99998L28.2 10.2L27 2.99998L25.1648 4.83513C22.5608 2.22903 18.9711 0.599976 15 0.599976ZM28.0945 15.5015C27.7972 15.4973 27.5089 15.6035 27.2855 15.7997C27.0621 15.9958 26.9194 16.2679 26.8851 16.5633C26.118 22.4527 21.1097 27 15 27C11.3735 27 8.15848 25.3803 5.95779 22.8422L7.79998 21L0.599976 19.8L1.79998 27L4.25857 24.5414C6.8943 27.5072 10.7233 29.4 15 29.4C22.3038 29.4 28.344 23.9359 29.264 16.8726C29.2884 16.7039 29.2764 16.5318 29.229 16.368C29.1817 16.2042 29.0999 16.0524 28.9893 15.9227C28.8786 15.7929 28.7416 15.6883 28.5873 15.6157C28.433 15.543 28.265 15.5041 28.0945 15.5015Z" fill="#FE2047"/>
</svg>
