<svg width="15" height="16" viewBox="0 0 15 16" fill="none" xmlns="http://www.w3.org/2000/svg">
<path d="M9.13611 10.7098C9.08267 10.1291 9.10377 9.72406 9.10377 9.19391C9.36674 9.0561 9.83783 8.17719 9.91658 7.43469C10.1233 7.41781 10.4496 7.21672 10.5452 6.42078C10.5958 5.99328 10.3919 5.75281 10.2667 5.67688C10.6028 4.66578 11.3017 1.53688 8.9758 1.21344C8.73533 0.792971 8.12221 0.580627 7.32627 0.580627C4.1383 0.63969 3.75439 2.98813 4.4533 5.67688C4.32814 5.75281 4.12424 5.99328 4.17486 6.42078C4.27189 7.21672 4.59674 7.41781 4.80346 7.43469C4.88221 8.17719 5.37158 9.0561 5.63596 9.19391C5.63596 9.72406 5.65564 10.1291 5.60221 10.7098C4.97221 12.4058 0.716895 11.9291 0.52002 15.2H14.2C14.0031 11.9291 9.76611 12.4058 9.13611 10.7098Z" fill="#FE2047"/>
</svg>
