<svg width="28" height="40" viewBox="0 0 28 40" fill="none" xmlns="http://www.w3.org/2000/svg">
<path d="M11.0686 0.256545C9.95297 0.289863 8.87506 0.870906 8.26092 1.88619L8.04396 2.24619C7.73411 2.75774 7.18816 3.07281 6.5911 3.08512H6.58949L6.16842 3.09476C4.36156 3.13239 2.88966 4.60323 2.85289 6.41029L2.84324 6.83137C2.83093 7.42843 2.51491 7.97552 2.00432 8.28422L1.64432 8.50279C0.098227 9.43869 -0.441611 11.4494 0.429316 13.0333H0.430923L0.633423 13.403C0.921545 13.9261 0.921545 14.5577 0.633423 15.0808L0.430923 15.4489C-0.439865 17.0325 0.0988271 19.0436 1.64592 19.9794L2.00592 20.1964C2.51747 20.5062 2.83254 21.0522 2.84485 21.6492V21.6508L2.85449 22.0719C2.88493 23.5335 3.85944 24.7617 5.18485 25.2026L0.909851 34.4662C0.851843 34.5916 0.826352 34.7296 0.83573 34.8675C0.845109 35.0054 0.889054 35.1386 0.963512 35.2551C1.03797 35.3715 1.14055 35.4673 1.26178 35.5336C1.383 35.5999 1.51898 35.6346 1.65717 35.6346H7.02181L10.0657 39.4403C10.1543 39.5509 10.2699 39.6368 10.4014 39.6896C10.5328 39.7425 10.6757 39.7605 10.8162 39.7419C10.9567 39.7233 11.0899 39.6687 11.2031 39.5835C11.3163 39.4983 11.4056 39.3853 11.4624 39.2555L14.0257 33.3974L16.5891 39.2555C16.6459 39.3853 16.7351 39.4983 16.8483 39.5835C16.9615 39.6687 17.0948 39.7233 17.2353 39.7419C17.3758 39.7605 17.5187 39.7425 17.6501 39.6896C17.7816 39.6368 17.8972 39.5509 17.9857 39.4403L21.0297 35.6346H26.3943C26.5325 35.6346 26.6685 35.5999 26.7897 35.5336C26.9109 35.4673 27.0135 35.3715 27.088 35.2551C27.1624 35.1386 27.2064 35.0054 27.2158 34.8675C27.2251 34.7296 27.1996 34.5916 27.1416 34.4662L22.8602 25.1882C24.1633 24.7348 25.1171 23.5175 25.1472 22.0719V22.0703L25.1568 21.6508V21.6492C25.1691 21.0522 25.4852 20.5051 25.9957 20.1964L26.3574 19.9778C27.9035 19.0419 28.4417 17.0328 27.5707 15.4489L27.5691 15.4473L27.3634 15.076C27.0771 14.5535 27.0775 13.9234 27.365 13.4014L27.5691 13.0333V13.0317C28.4395 11.4488 27.9013 9.43915 26.3557 8.50279L26.3541 8.50119L25.9941 8.28422C25.4826 7.97453 25.1675 7.42842 25.1552 6.83137V6.82976L25.1456 6.41029V6.40869C25.1079 4.60182 23.6371 3.12992 21.83 3.09315L21.409 3.08351C20.8119 3.0712 20.2648 2.75517 19.9561 2.24458L19.7375 1.88458C18.8017 0.337485 16.7906 -0.201207 15.207 0.669581V0.671188L14.8373 0.873688C14.3143 1.16181 13.6826 1.16181 13.1595 0.873688L12.7915 0.671188C12.3955 0.453491 11.9734 0.323676 11.5475 0.275831C11.3878 0.257888 11.228 0.251785 11.0686 0.256545ZM11.0268 1.89744C11.3523 1.87369 11.6895 1.94254 11.9991 2.11279L12.3656 2.31529C13.3812 2.87472 14.6172 2.87472 15.6329 2.31529L16.0009 2.11119V2.11279C16.8266 1.65878 17.842 1.93009 18.3297 2.73637L18.5482 3.09637C19.1478 4.08726 20.2157 4.7048 21.3736 4.72922L21.7963 4.73887C22.7387 4.75804 23.4823 5.50006 23.5015 6.44244V6.44404L23.5095 6.86512C23.5334 8.02403 24.1514 9.09184 25.1423 9.69208L25.5023 9.91065C26.3081 10.3981 26.5804 11.4124 26.1275 12.2378L25.9234 12.6074C25.364 13.6231 25.364 14.8575 25.9234 15.8732L25.925 15.8748V15.8764L26.1291 16.2412C26.583 17.0666 26.3096 18.0823 25.504 18.5699L25.144 18.7885C24.152 19.3882 23.535 20.4566 23.5111 21.6155L23.5031 22.0365V22.0382C23.4839 22.9805 22.7403 23.7225 21.7979 23.7417L21.3752 23.7514C20.2169 23.7758 19.1498 24.3921 18.5499 25.3826V25.3842L18.3313 25.7442C17.8436 26.5505 16.8282 26.8218 16.0025 26.3678V26.3694L15.6345 26.1653C14.6188 25.6059 13.3828 25.6059 12.3672 26.1653L11.9991 26.3694V26.3678C11.1737 26.8217 10.158 26.5498 9.67039 25.7442L9.45181 25.3842C8.85224 24.3933 7.78436 23.7758 6.62646 23.7514H6.62485L6.20378 23.7417C5.2614 23.7225 4.51778 22.9805 4.4986 22.0382V22.0365L4.49057 21.6155C4.46667 20.4566 3.8487 19.3887 2.85771 18.7885L2.49771 18.5699C1.69146 18.0821 1.41852 17.0669 1.87253 16.2412L2.07503 15.8748V15.8732C2.63368 14.8578 2.63419 13.6226 2.07503 12.6074L1.87092 12.2394H1.87253C1.41866 11.414 1.6905 10.3983 2.4961 9.91065L2.8561 9.69208C3.847 9.09251 4.46454 8.02462 4.48896 6.86672V6.86512L4.4986 6.44404C4.51777 5.50167 5.2598 4.75804 6.20217 4.73887H6.20378L6.62485 4.73083C7.78377 4.70694 8.85158 4.08896 9.45181 3.09797L9.67039 2.73797C9.91424 2.33484 10.2889 2.06404 10.707 1.95208C10.8115 1.92409 10.9183 1.90535 11.0268 1.89744ZM21.1598 25.434L25.107 33.9889H20.6343C20.5109 33.9888 20.389 34.0165 20.2777 34.0699C20.1664 34.1233 20.0686 34.2011 19.9915 34.2974L17.5502 37.3478L14.9241 31.3419L16.3095 28.1758C17.632 28.3824 19.0108 27.8 19.7391 26.596L19.9577 26.236C20.223 25.7981 20.6646 25.5173 21.1598 25.434ZM6.88842 25.4405C7.36492 25.534 7.78793 25.8125 8.04396 26.236L8.26253 26.596C9.19843 28.1421 11.2092 28.6819 12.7931 27.811V27.8094L13.1627 27.6069C13.6648 27.3303 14.2645 27.3268 14.7747 27.5812L10.5013 37.3478L8.06003 34.2974C7.98288 34.2011 7.88504 34.1233 7.77376 34.0699C7.66248 34.0165 7.54061 33.9888 7.41717 33.9889H2.94449L6.88842 25.4405Z" fill="#FE2047"/>
</svg>
