<svg width="38" height="32" viewBox="0 0 38 32" fill="none" xmlns="http://www.w3.org/2000/svg">
<path d="M2.41583 0.365723C1.12044 0.365723 0.0742188 1.45241 0.0742188 2.7459V30.8114C0.0742406 31.0297 0.160941 31.2389 0.315252 31.3933C0.469563 31.5476 0.678847 31.6343 0.897076 31.6343H37.1028C37.321 31.6343 37.5303 31.5476 37.6846 31.3933C37.8389 31.2389 37.9256 31.0297 37.9256 30.8114V2.7459C37.9256 1.45241 36.8794 0.365723 35.584 0.365723H2.41583ZM2.41583 2.01144H35.584C35.9673 2.01144 36.2799 2.31962 36.2799 2.7459V10.24H1.71993V2.7459C1.71993 2.31962 2.03258 2.01144 2.41583 2.01144ZM14.0628 3.65715V4.48001V8.59429H33.8114V3.65715H14.0628ZM5.01136 4.48001C4.57489 4.48001 4.1563 4.6534 3.84767 4.96203C3.53903 5.27066 3.36565 5.68925 3.36565 6.12572C3.36565 6.56219 3.53903 6.98079 3.84767 7.28942C4.1563 7.59805 4.57489 7.77144 5.01136 7.77144C5.44783 7.77144 5.86643 7.59805 6.17506 7.28942C6.48369 6.98079 6.65708 6.56219 6.65708 6.12572C6.65708 5.68925 6.48369 5.27066 6.17506 4.96203C5.86643 4.6534 5.44783 4.48001 5.01136 4.48001ZM9.9485 4.48001C9.51203 4.48001 9.09344 4.6534 8.78481 4.96203C8.47618 5.27066 8.30279 5.68925 8.30279 6.12572C8.30279 6.56219 8.47618 6.98079 8.78481 7.28942C9.09344 7.59805 9.51203 7.77144 9.9485 7.77144C10.385 7.77144 10.8036 7.59805 11.1122 7.28942C11.4208 6.98079 11.5942 6.56219 11.5942 6.12572C11.5942 5.68925 11.4208 5.27066 11.1122 4.96203C10.8036 4.6534 10.385 4.48001 9.9485 4.48001ZM15.7085 5.30287H32.1656V6.94858H15.7085V5.30287ZM1.71993 11.8857H36.2799V29.9886H1.71993V11.8857Z" fill="#FE2047"/>
</svg>
