<svg width="38" height="38" viewBox="0 0 38 38" fill="none" xmlns="http://www.w3.org/2000/svg">
<path d="M18.9999 0.0744629C8.59453 0.0744629 0.0742188 8.59477 0.0742188 19.0002C0.0742188 29.4056 8.59453 37.9259 18.9999 37.9259C29.4053 37.9259 37.9256 29.4056 37.9256 19.0002C37.9256 8.59477 29.4053 0.0744629 18.9999 0.0744629ZM18.9999 1.72018C28.5077 1.72018 36.2799 9.49244 36.2799 19.0002C36.2799 28.5079 28.5077 36.2802 18.9999 36.2802C9.49219 36.2802 1.71993 28.5079 1.71993 19.0002C1.71993 9.49244 9.49219 1.72018 18.9999 1.72018ZM18.349 5.01321C17.9867 5.01267 17.5987 5.11186 17.2755 5.36518C16.8445 5.70294 16.6105 6.23933 16.5378 6.84536C16.5372 6.85178 16.5366 6.85821 16.5362 6.86464C16.3316 9.01323 15.5126 10.1417 14.4903 11.0866C13.468 12.0316 12.1851 12.7073 11.2214 13.8461C11.2197 13.8482 11.2181 13.8503 11.2165 13.8525C10.4441 14.7868 9.91221 15.7703 9.43422 16.4416C9.19522 16.7772 8.97168 17.0284 8.78654 17.1696C8.60147 17.3109 8.48174 17.3545 8.30279 17.3545V19.0002C8.86729 19.0002 9.38608 18.7819 9.78458 18.4779C10.1831 18.1738 10.4893 17.7969 10.7746 17.3962C11.3444 16.596 11.8429 15.6801 12.483 14.9052C12.4837 14.9043 12.4838 14.9029 12.4846 14.902C13.1577 14.11 14.4002 13.4109 15.6073 12.2952C16.8169 11.177 17.9325 9.55565 18.1739 7.02053L18.1723 7.04143C18.2111 6.71804 18.2923 6.65968 18.2912 6.66053C18.2901 6.66136 18.2883 6.64365 18.4085 6.66536C18.6489 6.7087 19.1578 7.07108 19.3181 7.35161C19.3197 7.35483 19.3213 7.35804 19.323 7.36125C19.6509 7.91604 19.6837 8.72936 19.4805 9.66428C19.2772 10.5992 18.8536 11.6037 18.4567 12.4334C18.454 12.4393 18.4513 12.4451 18.4487 12.4511C18.2379 12.9197 18.1342 13.3901 18.1964 13.8541C18.2586 14.3181 18.5112 14.7435 18.8424 15.0241C19.5049 15.5852 20.3607 15.7104 21.2853 15.7104H25.5844C26.1444 15.7104 26.5223 15.8319 26.6965 15.9418C26.8707 16.0516 26.8621 16.0716 26.8621 16.162C26.8621 16.6185 26.7223 17.5971 26.7223 17.5971C26.6926 17.7894 26.7321 17.9859 26.8336 18.1518C26.9351 18.3178 27.0921 18.4424 27.2767 18.5036C27.2767 18.5036 28.0514 18.717 28.0514 19.5064C28.0514 20.2539 27.3169 20.6298 27.3169 20.6298C27.1738 20.7015 27.0548 20.8134 26.9743 20.9517C26.8938 21.09 26.8554 21.2487 26.8638 21.4085C26.8721 21.5683 26.9269 21.7222 27.0214 21.8514C27.1158 21.9805 27.2459 22.0793 27.3956 22.1357C27.3956 22.1357 28.0514 22.3284 28.0514 23.0759C28.0514 23.4249 27.8554 23.6772 27.5756 23.9036C27.2959 24.13 27.0212 24.2395 27.0212 24.2395C26.9022 24.2848 26.7953 24.3571 26.709 24.4507C26.6227 24.5443 26.5593 24.6567 26.5237 24.779C26.4882 24.9013 26.4816 25.0302 26.5043 25.1554C26.527 25.2807 26.5785 25.3991 26.6548 25.5011C26.6548 25.5011 26.936 25.9016 26.936 26.4204C26.936 26.62 26.9318 26.7227 26.8942 26.8189C26.8567 26.9151 26.7968 27.0371 26.4892 27.2223C25.8741 27.5927 24.2359 28.0516 20.771 28.0516C16.1355 28.0516 14.1344 27.654 12.7546 27.2609C11.3748 26.8678 10.4226 26.4059 8.30279 26.4059V28.0516C10.1977 28.0516 10.796 28.4125 12.3046 28.8423C13.8132 29.2721 16.0391 29.6973 20.771 29.6973C24.3687 29.6973 26.2242 29.3023 27.3378 28.6318C27.8946 28.2965 28.2582 27.8504 28.4274 27.4168C28.5967 26.9832 28.5817 26.5927 28.5817 26.4204C28.5817 25.9816 28.4566 25.6516 28.3423 25.342C28.4669 25.2641 28.4768 25.2912 28.6106 25.1829C29.1113 24.7777 29.6971 24.0649 29.6971 23.0759C29.6971 22.2846 29.3458 21.7364 28.9674 21.3386C29.3421 20.9138 29.6971 20.3232 29.6971 19.5064C29.6971 18.2192 28.9623 17.6383 28.4001 17.3079C28.447 16.9743 28.5078 16.6593 28.5078 16.162C28.5078 15.5085 28.1177 14.8919 27.5756 14.55C27.0335 14.2081 26.3624 14.0646 25.5844 14.0646H21.2853C20.5642 14.0646 20.0431 13.8832 19.9064 13.7673C19.838 13.7094 19.8368 13.7042 19.8276 13.6355C19.8184 13.5668 19.8261 13.4009 19.9498 13.1261C20.3689 12.2486 20.8404 11.1579 21.0892 10.013C21.3391 8.86332 21.3773 7.61005 20.7421 6.53036C20.3072 5.77299 19.5905 5.20606 18.6994 5.04536C18.5877 5.02521 18.4698 5.01339 18.349 5.01321Z" fill="#FE2047"/>
</svg>
