<svg width="36" height="33" viewBox="0 0 36 33" fill="none" xmlns="http://www.w3.org/2000/svg">
<path d="M8.30564 0.851562L3.49707 6.99728L1.25993 5.01728L0.179932 6.25156L3.05993 8.82299L3.70279 9.38871L4.24279 8.69442L9.59136 1.88013L8.30564 0.851562ZM13.0628 4.65728V6.30299H35.2799V4.65728H13.0628ZM8.30564 12.3716L3.49707 18.5173L1.25993 16.5373L0.179932 17.7716L3.05993 20.343L3.70279 20.9087L4.24279 20.2144L9.59136 13.4001L8.30564 12.3716ZM13.0628 16.1773V17.823H35.2799V16.1773H13.0628ZM8.30564 23.8916L3.49707 30.0373L1.25993 28.0573L0.179932 29.2916L3.05993 31.863L3.70279 32.4287L4.24279 31.7344L9.59136 24.9201L8.30564 23.8916ZM13.0628 27.6973V29.343H35.2799V27.6973H13.0628Z" fill="#FE2047"/>
</svg>
