<svg width="49" height="39" viewBox="0 0 49 39" fill="none" xmlns="http://www.w3.org/2000/svg">
<path d="M8.91676 38.9137V36.3252C8.91676 35.3329 8.32792 34.6858 7.31848 34.6858C6.81376 34.6858 6.26698 34.8583 5.88844 35.4192C5.59402 34.9446 5.17341 34.6858 4.54251 34.6858C4.12191 34.6858 3.70131 34.8152 3.36483 35.2898V34.7721H2.48157V38.9137H3.36483V36.6271C3.36483 35.8937 3.74337 35.5486 4.33221 35.5486C4.92105 35.5486 5.21547 35.9369 5.21547 36.6271V38.9137H6.09874V36.6271C6.09874 35.8937 6.51933 35.5486 7.06611 35.5486C7.65496 35.5486 7.94938 35.9369 7.94938 36.6271V38.9137H8.91676ZM21.9974 34.7721H20.5674V33.521H19.6841V34.7721H18.885V35.5918H19.6841V37.49C19.6841 38.4391 20.0627 38.9999 21.0721 38.9999C21.4507 38.9999 21.8713 38.8705 22.1657 38.698L21.9133 37.9214C21.661 38.094 21.3665 38.1371 21.1562 38.1371C20.7356 38.1371 20.5674 37.8783 20.5674 37.4468V35.5918H21.9974V34.7721ZM29.4841 34.6858C28.9794 34.6858 28.6429 34.9446 28.4326 35.2898V34.7721H27.5494V38.9137H28.4326V36.584C28.4326 35.8938 28.7271 35.5055 29.2738 35.5055C29.4421 35.5055 29.6524 35.5486 29.8206 35.5918L30.073 34.7289C29.9048 34.6858 29.6524 34.6858 29.4841 34.6858ZM18.17 35.1172C17.7494 34.8152 17.1605 34.6858 16.5296 34.6858C15.5202 34.6858 14.8472 35.2035 14.8472 36.0232C14.8472 36.7134 15.3519 37.1017 16.2352 37.2311L16.6558 37.2743C17.1185 37.3606 17.3708 37.49 17.3708 37.7057C17.3708 38.0077 17.0344 38.2234 16.4455 38.2234C15.8567 38.2234 15.394 38.0077 15.0996 37.792L14.679 38.4822C15.1417 38.8274 15.7726 38.9999 16.4035 38.9999C17.5811 38.9999 18.2541 38.4391 18.2541 37.6626C18.2541 36.9291 17.7073 36.5409 16.8661 36.4114L16.4455 36.3683C16.067 36.3252 15.7726 36.2389 15.7726 35.98C15.7726 35.678 16.067 35.5055 16.5296 35.5055C17.0344 35.5055 17.5391 35.7212 17.7914 35.8506L18.17 35.1172ZM41.6395 34.6858C41.1348 34.6858 40.7983 34.9446 40.588 35.2898V34.7721H39.7048V38.9137H40.588V36.584C40.588 35.8938 40.8824 35.5055 41.4292 35.5055C41.5975 35.5055 41.8078 35.5486 41.976 35.5918L42.2284 34.7289C42.0601 34.6858 41.8078 34.6858 41.6395 34.6858ZM30.3674 36.8429C30.3674 38.094 31.2086 38.9999 32.5125 38.9999C33.1013 38.9999 33.5219 38.8705 33.9425 38.5254L33.5219 37.792C33.1854 38.0508 32.8489 38.1802 32.4704 38.1802C31.7554 38.1802 31.2507 37.6625 31.2507 36.8429C31.2507 36.0663 31.7554 35.5486 32.4704 35.5055C32.8489 35.5055 33.1854 35.6349 33.5219 35.8937L33.9425 35.1603C33.5219 34.8152 33.1013 34.6858 32.5125 34.6858C31.2086 34.6858 30.3674 35.5918 30.3674 36.8429ZM38.5271 36.8429V34.7721H37.6438V35.2898C37.3494 34.9015 36.9288 34.6858 36.382 34.6858C35.2464 34.6858 34.3631 35.5918 34.3631 36.8429C34.3631 38.094 35.2464 38.9999 36.382 38.9999C36.9708 38.9999 37.3914 38.7842 37.6438 38.396V38.9137H38.5271V36.8429ZM35.2884 36.8429C35.2884 36.1094 35.7511 35.5055 36.5082 35.5055C37.2232 35.5055 37.7279 36.0663 37.7279 36.8429C37.7279 37.5763 37.2232 38.1802 36.5082 38.1802C35.7511 38.1371 35.2884 37.5763 35.2884 36.8429ZM24.7314 34.6858C23.5537 34.6858 22.7125 35.5486 22.7125 36.8429C22.7125 38.1371 23.5537 38.9999 24.7734 38.9999C25.3623 38.9999 25.9511 38.8274 26.4138 38.4391L25.9932 37.792C25.6567 38.0508 25.2361 38.2234 24.8155 38.2234C24.2687 38.2234 23.7219 37.9645 23.5957 37.2311H26.582C26.582 37.1017 26.582 37.0154 26.582 36.886C26.6241 35.5486 25.867 34.6858 24.7314 34.6858ZM24.7314 35.4623C25.2781 35.4623 25.6567 35.8075 25.7408 36.4546H23.6378C23.7219 35.8937 24.1005 35.4623 24.7314 35.4623ZM46.6447 36.8429V33.1327H45.7614V35.2898C45.467 34.9015 45.0464 34.6858 44.4996 34.6858C43.364 34.6858 42.4807 35.5918 42.4807 36.8429C42.4807 38.094 43.364 38.9999 44.4996 38.9999C45.0884 38.9999 45.509 38.7842 45.7614 38.396V38.9137H46.6447V36.8429ZM43.406 36.8429C43.406 36.1094 43.8687 35.5055 44.6258 35.5055C45.3408 35.5055 45.8455 36.0663 45.8455 36.8429C45.8455 37.5763 45.3408 38.1802 44.6258 38.1802C43.8687 38.1371 43.406 37.5763 43.406 36.8429ZM13.8799 36.8429V34.7721H12.9966V35.2898C12.7022 34.9015 12.2816 34.6858 11.7348 34.6858C10.5992 34.6858 9.7159 35.5918 9.7159 36.8429C9.7159 38.094 10.5992 38.9999 11.7348 38.9999C12.3236 38.9999 12.7442 38.7842 12.9966 38.396V38.9137H13.8799V36.8429ZM10.5992 36.8429C10.5992 36.1094 11.0618 35.5055 11.8189 35.5055C12.5339 35.5055 13.0387 36.0663 13.0387 36.8429C13.0387 37.5763 12.5339 38.1802 11.8189 38.1802C11.0618 38.1371 10.5992 37.5763 10.5992 36.8429Z" fill="white"/>
<path d="M31.1244 3.3219H17.8755V27.74H31.1244V3.3219Z" fill="#DFDFDF"/>
<path d="M18.7167 15.531C18.7167 10.5697 20.988 6.16925 24.479 3.32191C21.9133 1.25111 18.6747 0 15.1416 0C6.77168 0 0 6.9458 0 15.531C0 24.1161 6.77168 31.0619 15.1416 31.0619C18.6747 31.0619 21.9133 29.8108 24.479 27.7401C20.988 24.9358 18.7167 20.4923 18.7167 15.531Z" fill="white"/>
<path d="M49.0001 15.531C49.0001 24.1161 42.2284 31.0619 33.8585 31.0619C30.3254 31.0619 27.0868 29.8108 24.5211 27.7401C28.0542 24.8927 30.2833 20.4923 30.2833 15.531C30.2833 10.5697 28.0121 6.16925 24.5211 3.32191C27.0868 1.25111 30.3254 0 33.8585 0C42.2284 0 49.0001 6.98894 49.0001 15.531Z" fill="#A5A5A5"/>
</svg>
