<svg width="15" height="16" viewBox="0 0 15 16" fill="none" xmlns="http://www.w3.org/2000/svg">
<path d="M9.13608 10.7098C9.08265 10.1291 9.10374 9.72406 9.10374 9.19391C9.36671 9.0561 9.8378 8.17719 9.91655 7.43469C10.1233 7.41781 10.4495 7.21672 10.5451 6.42078C10.5958 5.99328 10.3919 5.75281 10.2667 5.67688C10.6028 4.66578 11.3017 1.53688 8.97577 1.21344C8.7353 0.792971 8.12218 0.580627 7.32624 0.580627C4.13827 0.63969 3.75436 2.98813 4.45327 5.67688C4.32811 5.75281 4.12421 5.99328 4.17483 6.42078C4.27186 7.21672 4.59671 7.41781 4.80343 7.43469C4.88218 8.17719 5.37155 9.0561 5.63593 9.19391C5.63593 9.72406 5.65561 10.1291 5.60218 10.7098C4.97218 12.4058 0.716864 11.9291 0.519989 15.2H14.2C14.0031 11.9291 9.76608 12.4058 9.13608 10.7098Z" fill="white"/>
</svg>
